<?xml version="1.0" encoding="UTF-8"?>
<!DOCTYPE svg PUBLIC "-//W3C//DTD SVG 1.1//EN" "http://www.w3.org/Graphics/SVG/1.1/DTD/svg11.dtd">
<!-- Creator: CorelDRAW X6 -->
<svg xmlns="http://www.w3.org/2000/svg" xml:space="preserve" width="8.26772in" height="11.6929in" version="1.1" style="shape-rendering:geometricPrecision; text-rendering:geometricPrecision; image-rendering:optimizeQuality; fill-rule:evenodd; clip-rule:evenodd"
viewBox="0 0 82677 116929"
 xmlns:xlink="http://www.w3.org/1999/xlink">
 <defs>
  <style type="text/css">
   <![CDATA[
    .str0 {stroke:#2B2A29;stroke-width:78.7402}
    .fil0 {fill:#010101}
    .fil3 {fill:#044A54}
    .fil2 {fill:#0585C1}
    .fil1 {fill:#FEFEFE}
   ]]>
  </style>
 </defs>
 <g id="Слой_x0020_1">
  <metadata id="CorelCorpID_0Corel-Layer"/>
  <g id="_386108160">
   <g id="_735101280">
    <path class="fil0" d="M35305 54113c-4,6 -9,11 -14,18 -602,-23 -572,-211 -917,-315 -178,129 -202,224 -186,521 -427,15 -1086,220 -1134,597 105,87 221,144 328,165 -365,261 -937,78 -1153,188 -241,247 87,492 212,656 -275,289 -279,332 -486,720 -77,133 -139,682 -143,844 -7,222 0,180 206,184 -30,475 104,795 98,1176 -4,329 -378,689 -197,866 177,165 403,-98 599,-153 13,499 84,1081 411,1444 39,44 173,204 229,117 66,212 86,695 497,1035 189,156 219,116 328,-18 56,87 171,183 253,271 245,267 388,450 658,440 92,-4 148,-28 215,-93 139,133 449,367 650,476 222,83 269,99 373,15 519,356 1168,585 2171,370 216,156 560,275 1088,85 242,-88 256,-155 396,-279 473,52 660,29 1004,-189 82,-84 177,-172 214,-306 627,21 1091,-365 1308,-755 324,227 435,-98 469,-573 36,-484 149,-473 318,-829 59,-124 69,-135 109,-180 702,-129 642,-1011 656,-1377 726,303 817,-279 528,-473 -165,-111 -198,-144 -270,-330 221,56 301,-64 224,-504 -2,-11 -4,-21 -6,-31 -45,-219 -202,-484 -210,-717 205,-36 322,-98 356,-316 -172,-89 -313,-142 -460,-282 -176,-168 -233,-300 -220,-386 64,-13 79,-103 87,-157 72,-545 -641,-742 -720,-791 41,-211 60,-252 12,-497 -311,-116 -995,263 -1517,-260 1,-7 1,-14 1,-20 120,-237 188,-505 188,-789 0,-965 -782,-1747 -1747,-1747 -668,0 -1248,376 -1543,926 -239,-680 -886,-1167 -1648,-1167 -966,0 -1748,782 -1748,1747 0,239 48,467 135,674l-2 -1z"/>
    <path class="fil1 str0" d="M40107 52106c870,0 1576,705 1576,1575 0,871 -706,1576 -1576,1576 -870,0 -1575,-705 -1575,-1576 0,-870 705,-1575 1575,-1575zm-459 719c340,0 616,276 616,616 0,340 -276,616 -616,616 -340,0 -616,-276 -616,-616 0,-340 276,-616 616,-616z"/>
    <path class="fil1 str0" d="M36916 51894c870,0 1576,705 1576,1576 0,870 -706,1575 -1576,1575 -870,0 -1575,-705 -1575,-1575 0,-871 705,-1576 1575,-1576zm400 1396c340,0 616,276 616,616 0,340 -276,616 -616,616 -340,0 -616,-276 -616,-616 0,-340 276,-616 616,-616z"/>
    <path class="fil2" d="M42528 58029c-43,3 -656,1553 -764,1768 -412,824 -1053,1627 -1851,1945 -391,156 -945,261 -1481,291 -2080,115 -3189,-850 -4030,-2659 -172,-368 -114,-451 -331,-1071 -179,-510 -357,-829 -771,-1106 -131,-90 -240,-219 -349,-334 -155,98 -261,97 -327,46 -105,-80 -107,-488 83,-688 94,-100 452,-160 559,-72 85,70 45,214 8,354 19,73 109,143 196,205 688,495 1125,12 1748,-122 150,4 226,87 225,252 -36,128 -59,88 -59,220 206,-22 559,-273 671,-333 134,-72 156,-60 246,-22 55,147 29,220 16,396 1011,-74 1078,-617 1571,-619 5,162 47,351 -73,510 266,-88 477,-358 776,-479 267,200 248,433 738,603 62,-235 119,-372 186,-382 67,-9 913,698 1293,757 9,-163 49,-510 314,-341 316,203 532,392 1049,362 563,-32 747,-146 839,-303 -1,-132 6,-174 30,-265 58,-210 783,-289 588,916 -140,8 -225,-79 -303,-173 -269,220 -420,312 -799,345l2 -1zm-7168 -3761c-477,91 -800,-156 -969,-237 -210,175 60,300 163,479 -466,-33 -1073,16 -1251,377 140,86 300,44 429,119 -297,389 -791,444 -1436,403 45,373 231,256 378,512 -278,369 -725,654 -692,1510 158,-52 78,-76 259,-141 -26,416 -64,873 0,1285 100,645 -56,558 -184,1020 357,-52 386,-237 596,-315 27,446 78,1298 407,1639 112,117 144,-33 158,-73 121,465 262,949 560,1205 55,40 89,-64 119,-195 283,128 638,889 1065,830 -64,-102 -100,-204 -89,-306 105,53 384,331 517,443 83,71 180,147 269,208 63,44 153,88 228,131 231,135 222,30 191,-117 543,403 1625,746 2370,372 17,26 -55,90 -6,142 97,103 653,124 889,39 196,-70 262,-182 417,-311 427,31 683,70 956,-203 206,-207 320,-470 584,-612 -21,112 -41,224 -62,336 721,-134 937,-689 1065,-1053 120,57 19,208 162,341 164,-70 161,-254 181,-466 93,-914 401,-766 526,-1406 35,61 39,117 67,234 536,-319 519,-552 518,-1480 287,132 498,359 693,7 -257,-252 -561,-373 -589,-994 115,87 229,175 344,262 36,-395 -235,-896 -343,-1219 182,-2 297,29 422,-79 -176,-168 -314,-104 -484,-381 -145,-240 -77,-268 -288,-551 85,-21 169,-42 254,-63 -222,-431 -574,-568 -892,-597 86,-199 230,-161 227,-474 -1007,40 -597,149 -1513,-239 -98,83 -74,87 -144,172 -961,1164 -2608,592 -2916,-499 -341,311 -478,919 -1635,890 -828,-20 -1061,-395 -1520,-945l-1 0z"/>
    <path class="fil3" d="M42528 58029c-43,3 -656,1553 -764,1768 -412,824 -1053,1627 -1851,1945 -391,156 -945,261 -1481,291 -2080,115 -3189,-850 -4030,-2659 -275,-589 -262,-1281 -725,-1843 -197,-238 -487,-416 -725,-669 -154,98 -261,96 -327,46 -104,-80 -107,-488 83,-688 94,-100 453,-160 559,-72 85,70 45,214 8,354 20,73 109,143 196,204 688,496 1125,13 1748,-121 150,4 226,87 225,252 -36,128 -59,88 -59,220 206,-22 559,-273 671,-333 134,-72 156,-60 246,-22 55,146 29,220 16,396 1011,-74 1078,-617 1571,-619 5,162 47,351 -73,510 266,-88 478,-358 776,-479 267,200 248,432 738,603 62,-235 119,-372 186,-382 67,-10 913,698 1293,756 9,-162 49,-509 314,-340 316,203 532,392 1049,362 563,-32 747,-146 839,-303 -1,-132 6,-174 30,-265 58,-210 783,-289 588,916 -139,8 -225,-79 -303,-173 -269,220 -420,312 -799,345l1 0zm-669 959c229,-551 486,-1173 649,-1187 163,-14 273,-39 366,-81 93,-44 186,-112 308,-212l176 -144 78 95c-2,-196 -45,-312 -102,-375 -17,-18 -34,-28 -50,-34 -12,-3 -25,-5 -35,-3 -2,12 -4,25 -7,37 -3,32 -4,67 -4,119l1 63 -31 54c-69,119 -171,220 -355,296 -151,61 -362,104 -670,122 -532,30 -783,-135 -1083,-332 -16,-11 -33,-22 -50,-33 -8,43 -12,91 -14,128l-15 252 -247 -38c-303,-47 -784,-387 -1101,-611 -49,-35 -67,-69 -78,-96 -14,44 -30,99 -48,162l-63 240 -233 -82c-378,-131 -504,-293 -630,-455 -23,-30 -46,-60 -71,-89 -74,45 -146,100 -217,154 -142,107 -280,212 -449,268l-699 231 446 -586c15,-20 24,-43 29,-69 -44,28 -90,62 -138,97 -242,179 -541,400 -1190,448l-262 20 18 -263c3,-33 7,-73 11,-111l1 -10 -39 24c-174,108 -444,276 -655,298l-251 26 -1 -253c0,-133 17,-167 46,-227 1,-2 2,-4 3,-8 -134,36 -267,90 -395,141 -457,187 -877,357 -1475,-72 -51,-37 -103,-76 -148,-119 -63,-61 -114,-131 -136,-213l-16 -58 16 -59 0 -1c19,-70 96,-93 68,-117l0 0c-1,-1 -41,7 -96,14 -73,9 -136,24 -150,39 -5,4 -9,10 -14,16 -48,63 -73,157 -78,244 -1,25 -3,47 -5,63 14,-7 32,-17 52,-30l159 -100 129 137c102,108 216,202 327,295 147,121 289,239 408,385 318,387 429,808 539,1224 61,230 120,459 218,667 405,869 869,1533 1474,1961 600,422 1351,620 2336,566 259,-13 525,-47 773,-96 239,-47 459,-107 637,-178 337,-136 648,-369 922,-658 325,-341 598,-755 809,-1178 39,-77 162,-378 299,-706l3 -2z"/>
   </g>
  </g>
 </g>
</svg>
