<?xml version="1.0" ?><svg height="512" id="svg4156" version="1.1" width="512" xmlns="http://www.w3.org/2000/svg" xmlns:cc="http://creativecommons.org/ns#" xmlns:dc="http://purl.org/dc/elements/1.1/" xmlns:inkscape="http://www.inkscape.org/namespaces/inkscape" xmlns:rdf="http://www.w3.org/1999/02/22-rdf-syntax-ns#" xmlns:sodipodi="http://sodipodi.sourceforge.net/DTD/sodipodi-0.dtd" xmlns:svg="http://www.w3.org/2000/svg"><defs id="defs4158"/><g id="layer1" transform="translate(0,448)"><path d="M 256,-448 C 114.615,-448 0,-333.384 0,-192 0,-50.6148 114.615,64 256,64 397.3848,64 512,-50.6148 512,-192 512,-333.384 397.3848,-448 256,-448 z m -66.0937,113.625 c 2.1497,-0.013 4.2823,0.1618 6.4063,0.5313 6.7969,1.1822 13.319,4.349 18.625,9.4687 3.3739,3.2555 6.0624,7.1402 7.9374,11.4376 a 8.0025842,8.0025842 0 0 1 0.2188,0.5624 8.0008,8.0008 0 0 1 0.8438,3.375 c 0.8289,26.8511 1.27,39.091 1.5,44.5313 0.059,1.4045 0.069,1.5059 0.094,1.9687 0.091,0.087 0.1908,0.1629 0.2813,0.25 5.7246,5.5237 10.516,11.9207 14.2187,18.9376 4.6564,-1.1941 9.8498,-1.8126 15.0937,-1.8126 5.0764,0 10.1913,0.5929 14.9063,1.7813 4.0183,-7.5154 9.1898,-14.1001 15.1875,-19.625 0.023,-0.4884 0.024,-0.3745 0.062,-1.2813 0.23,-5.4399 0.671,-17.6489 1.5,-44.5 a 8.0008,8.0008 0 0 1 0.5,-2.6562 8.0008005,8.0008005 0 0 1 0.5313,-1.5 c 4.994,-11.2286 15.1497,-18.6644 26.4687,-20.6875 6.792,-1.2137 14.013,-0.4651 20.75,2.5313 4.284,1.9049 8.144,4.6343 11.375,8.0312 a 8.002435,8.002435 0 0 1 0.3437,0.4062 8.0008,8.0008 0 0 1 2,2.9376 c 9.962,24.948 14.548,36.2795 16.625,41.3124 0.5425,1.3136 0.5676,1.348 0.7813,1.8438 0.1032,0.045 0.2094,0.079 0.3125,0.125 8.917,3.9657 16.9778,9.6311 23.7188,16.6875 a 8.0007997,8.0007997 0 0 1 1.875,3 8.0008,8.0008 0 0 1 0.031,0.031 l 36.8438,93.3437 a 8.0109996,8.0109996 0 0 1 0.2187,0.75 8.0109996,8.0109996 0 0 1 0.125,0.3437 c 0,0.01 0,0.022 0,0.031 1.609,4.4603 2.8681,9.1124 3.7187,13.9375 8.04,45.5998 -22.5562,89.3034 -68.1562,97.3438 -45.6,8.0404 -89.2725,-22.5565 -97.3125,-68.1563 -0.727,-4.1228 -1.1374,-8.2466 -1.25,-12.3125 a 8.0008,8.0008 0 0 1 -0.1563,-1.7812 l 0.3438,-41.0626 a 11.410493,5.6099949 0 0 1 -2.9062,-1.4062 c -0.6061,-0.4231 -1.4203,-0.8159 -2.4063,-1.125 -4.286,-1.3442 -10.33,-0.7496 -13,1.0938 a 11.410493,5.6099949 0 0 1 -3.4063,1.625 l 1.0626,39.4062 a 8.0029929,8.0029929 0 0 1 -0.031,0.75 c 0.011,4.8801 -0.4048,9.8426 -1.2813,14.8125 -8.0399,45.5998 -51.7437,76.1969 -97.3437,68.1563 -45.6,-8.0404 -76.165,-51.744 -68.125,-97.3438 0.7507,-4.2576 1.7803,-8.3992 3.125,-12.375 a 8.0045218,8.0045218 0 0 1 0.375,-1.3438 l 35.2813,-94.5624 a 8.0008,8.0008 0 0 1 0.1562,-0.375 8.003643,8.003643 0 0 1 0.031,-0.125 8.0008,8.0008 0 0 1 0.031,-0.063 8.003643,8.003643 0 0 1 1.9063,-3.25 c 7.2739,-7.5383 15.7667,-13.1927 24.875,-17 0.1968,-0.456 0.1713,-0.3467 0.5312,-1.2187 2.077,-5.0333 6.662,-16.3957 16.625,-41.3437 a 8.0008,8.0008 0 0 1 1.375,-2.3126 8.0008005,8.0008005 0 0 1 0.1562,-0.2187 8.0008,8.0008 0 0 1 0.031,-0.031 8.0008005,8.0008005 0 0 1 0.8437,-0.9687 c 6.9331,-7.1853 16.216,-10.848 25.5313,-10.9063 z m -0.1563,15.9063 c -4.8095,0.084 -9.5939,1.9522 -13.3437,5.5625 -5.8843,14.7308 -9.5243,23.7697 -12.1875,30.3438 7.5021,-0.9599 15.1272,-0.8035 22.5938,0.5 7.6898,1.3423 15.2027,3.9044 22.25,7.6562 -0.257,-7.0245 -0.5698,-16.7516 -1.0626,-32.625 -1.0215,-2.1783 -2.4221,-4.1704 -4.1562,-5.8438 -3.9635,-3.8243 -9.0513,-5.6818 -14.0938,-5.5937 z m 131.0938,0.2813 c -7.4745,-0.1641 -14.6076,3.9605 -18.0938,11.0937 -0.4904,15.8413 -0.8131,25.5688 -1.0624,32.6563 6.7188,-3.4656 13.9161,-5.9218 21.375,-7.25 7.6748,-1.367 15.6047,-1.5479 23.5,-0.4376 -2.6418,-6.519 -6.2528,-15.5504 -12.125,-30.25 -1.7076,-1.7025 -3.6997,-3.0812 -5.9063,-4.0624 -2.516,-1.1191 -5.1183,-1.6937 -7.6875,-1.75 z m -148.0625,50.9062 c -14.551,0.2613 -29.0119,5.925 -40.1875,16.9062 l -17.5312,46.9376 c 17.1616,-11.4792 38.5354,-16.7161 60.4062,-13.0938 a 8.0008004,8.0008004 0 0 1 0.875,0.094 8.0008004,8.0008004 0 0 1 0.75,0.1874 c 21.2301,3.9448 39.1674,15.6137 51.375,31.5938 l -1.3125,-48.625 c -0.043,-0.093 -0.081,-0.1884 -0.125,-0.2812 a 11.410493,5.6099949 0 0 1 -0.3125,-0.625 c -3.0102,-6.1667 -7.0849,-11.7895 -12.0312,-16.5626 -11.7341,-11.3217 -26.8578,-16.8014 -41.9063,-16.5312 z m 162.2813,0.375 c -21.1945,0.3342 -41.2752,12.1753 -51.4376,32.125 a 11.410493,5.6099949 0 0 1 -0.6874,1.5938 l -0.4063,49.9374 c 12.2004,-16.6597 30.4871,-28.8917 52.2813,-32.9687 a 8.0008004,8.0008004 0 0 1 0.875,-0.2187 8.0008004,8.0008004 0 0 1 0.75,-0.094 c 21.3084,-3.5559 42.1529,1.3052 59.0937,12.1562 l -17.875,-45.25 c -5.0997,-5.0954 -11.0622,-9.2238 -17.6563,-12.1562 -7.4492,-3.3129 -15.2274,-4.9768 -22.875,-5.125 -0.6856,-0.013 -1.3788,-0.011 -2.0624,0 z m -79.9063,33.0312 c -3.0477,0.011 -6.0188,0.6917 -7.6875,1.8438 a 11.410493,5.6099949 0 0 1 -4.2188,1.875 l 1.125,42.4062 c 3.6521,-0.6682 7.5291,-1.0312 11.4376,-1.0312 3.6138,0 7.2556,0.3085 10.75,0.9062 l 0.3437,-42.375 a 11.410493,5.6099949 0 0 1 -4.0625,-1.7812 c -0.606,-0.4231 -1.4203,-0.7846 -2.4062,-1.0938 -1.6073,-0.5039 -3.4527,-0.7565 -5.2813,-0.75 z m -95.3437,32.1876 c -31.6609,0.8374 -59.3106,23.7389 -65.0313,56.1874 -6.539,37.0843 18.0723,72.2423 55.1563,78.7813 37.085,6.5389 72.2735,-18.072 78.8124,-55.1563 0.8006,-4.5397 1.1307,-9.0668 1.0313,-13.5 l 0,-0.2812 c -0.8407,-31.6614 -23.7703,-59.2785 -56.2187,-65 -4.6356,-0.8174 -9.2272,-1.151 -13.75,-1.0312 z m 189,0 c -3.421,0.081 -6.8672,0.4182 -10.3438,1.0312 -37.084,6.5389 -61.6952,41.6971 -55.1562,78.7812 6.5389,37.0843 41.6649,61.6952 78.75,55.1563 37.0839,-6.539 61.7264,-41.6969 55.1874,-78.7813 -0.8173,-4.6355 -2.0901,-9.072 -3.75,-13.2812 -10.3739,-26.3076 -36.1799,-43.5804 -64.6874,-42.9062 z" id="path15699" style="fill:#4d4d4d;fill-opacity:1;fill-rule:nonzero;stroke:none"/></g></svg>
