<?xml version="1.0" encoding="UTF-8"?><svg xmlns="http://www.w3.org/2000/svg" xmlns:xlink="http://www.w3.org/1999/xlink" version="1.1" x="0px" y="0px" viewBox="0 0 48 48" xml:space="preserve"><g id="Layer_3" fill-rule="evenodd" clip-rule="evenodd"><path d="M34.39 11.524C38.212 11.21 39 10 39 10l-1 3s.615-1.26 2.523-.353C42.43 13.555 44 16 44 16l-.858 1.412L45 20l-1.075.725c.079.237.151.477.216.721.573.371 2.012.826 2.859 1.554-.047 1.438-1.514 1.701-2.427 1.795-.011 2.201-.591 4.371-1.642 6.398-.093 1.949.211 4.22.211 4.22H41.57s-.14-.524-1.572 1.059-2.619 1.588-2.619 1.588.036 1.171-1.048 2.647c-1.083 1.476-3.143 1.059-3.143 1.059l-1.572 1.588s-1.251.221-3.667 0c-2.906 1.015-7.334.529-7.334.529s-4.415-1.835-4.715 0c-1.045-1.482-3.143-2.118-3.143-2.118s.028 1.237-.524 1.059C9.92 40.972 9.697 38.91 9.09 39.647c-1.781-1.026-2.359-3.108-2.54-4.147a13.02 13.02 0 0 1-.339-.48c-.269.14-.803.411-1.836.921.202-2.112-.259-4.172-2.62-6.353s1.572-6.353 1.572-6.353-.373.245-2.096-2.118c4.603-.365 4.715-1.588 4.715-1.588s.294-.208-2.62-.529c.848-1.643 4.715-2.647 4.715-2.647s-1.575-.306-1.572-1.588c.352.759 3.197.639 4.29.563 2.796-2.212 6.32-3.887 10.301-4.707 4.777-.984 9.436-.575 13.33.903z" fill="#1493F6"/><circle cx="16.485" cy="12.515" r="7.485" fill="#1493F6"/><circle cx="27.5" cy="11.5" r="7.5" fill="#1493F6"/><circle cx="16.5" cy="12.5" r="5.5" fill="#FFF3DF"/><circle cx="27.5" cy="11.5" r="5.5" fill="#FFF3DF"/><circle cx="26" cy="11" r="2" fill="#616161"/><circle cx="18" cy="14" r="2" fill="#616161"/><g fill="#0D43A4"><path d="M39.786 17.382a1.003 1.003 0 0 0-1.404-.168 37.711 37.711 0 0 1-2.013 1.468c.361.176.631.318.631.318.241.456-3.141 2.131-3.885 2.043.406.158 1.825.726 1.813.735-.623.51-2.373.782-3.04.626-.48-.112-.938-.26-1.543-.329-.133.025 1.416 1.7 1.348 1.719C29.353 24.47 28 23 28 23v3s-2.732-.23-3.928-1.904l-.079.018C24.009 25.537 22.46 27.707 22 28c.098-.768-.219-2.256-.851-3.048-.378 1.015-.881 2.123-2.128 3.048-.116-.089-.021-2-.021-2s-.835 1.082-1.985 1.565c-.079-2.056-.035-2.466-.019-2.544l-.065.002c-.276.097-1.332.549-1.931 1.977-.619-.481-.855-1.62-.997-1.992l-.013-.001c-.144.008-.412 1.284-1.99 1.993-.189-.162-.129-1.856-2.003-2.37.003-.004.016-.011.021-.016-1.689-.266-2.684-.558-2.724-.57a1 1 0 1 0-.589 1.911c.168.052 1.524.754 3.295 1.045 1.781 3.46 7 11 17 10 10.478-1.048 10.344-12.157 10-16 .807-.545 1.814-1.581 2.618-2.214a1 1 0 0 0 .168-1.404z"/><path d="M33.115 21.043A1.709 1.709 0 0 0 33 21c.024.024.064.037.115.043z"/></g><path fill="none" d="M-1-1h50v50H-1z"/></g><metadata><rdf:RDF xmlns:rdf="http://www.w3.org/1999/02/22-rdf-syntax-ns#" xmlns:rdfs="http://www.w3.org/2000/01/rdf-schema#" xmlns:dc="http://purl.org/dc/elements/1.1/"><rdf:Description about="https://iconscout.com/legal#licenses" dc:title="cookie,monster" dc:description="cookie,monster" dc:publisher="Iconscout" dc:date="2017-12-12" dc:format="image/svg+xml" dc:language="en"><dc:creator><rdf:Bag><rdf:li>Icons8</rdf:li></rdf:Bag></dc:creator></rdf:Description></rdf:RDF></metadata></svg>
