<?xml version="1.0" ?><svg height="512" id="svg2" version="1.1" width="512" xmlns="http://www.w3.org/2000/svg" xmlns:cc="http://creativecommons.org/ns#" xmlns:dc="http://purl.org/dc/elements/1.1/" xmlns:inkscape="http://www.inkscape.org/namespaces/inkscape" xmlns:rdf="http://www.w3.org/1999/02/22-rdf-syntax-ns#" xmlns:sodipodi="http://sodipodi.sourceforge.net/DTD/sodipodi-0.dtd" xmlns:svg="http://www.w3.org/2000/svg"><defs id="defs4"/><g id="layer1" transform="translate(0,-540.36218)"><g id="g5946" transform="translate(12331.556,3496.9289)"><g id="g5083" style="fill:#e04445;fill-opacity:0.99215686" transform="translate(-12059.628,-4082.6932)"><g id="g5085" style="fill:#e04445;fill-opacity:0.99215686" transform="matrix(3.4146328,0,0,3.4146328,8668.479,16.2942)"><g id="g5087" style="fill:#e04445;fill-opacity:0.99215686"><path d="m 151,842.86218 c 0,39.48836 -32.01164,71.5 -71.5,71.5 -39.48836,0 -71.5,-32.01164 -71.5,-71.5 0,-39.48836 32.01164,-71.5 71.5,-71.5 39.48836,0 71.5,32.01164 71.5,71.5 z" id="path5089" style="fill:#e04445;fill-opacity:0.99215686;stroke:none" transform="translate(-2622.0305,-441.85446)"/></g></g></g><path d="m -12157.6,-2793.0251 c -2.475,0.073 -4.792,0.9026 -6.133,2.3939 -0.04,0.046 -0.09,0.083 -0.131,0.1312 l -76.412,76.3795 c -1.504,1.5041 -2.327,3.429 -2.46,5.3784 -0.02,0.234 -0.04,0.4543 -0.03,0.6887 0,0.044 0,0.087 0,0.1312 l 0,9.8057 c 0,4.4456 3.557,8.002 8.002,8.002 l 2.591,0 c -3.578,11.9869 -3.012,27.8514 0.656,44.0764 7.891,34.9035 32.548,43.7136 65.295,44.8636 44.68,0 67.06,-18.8256 75.92,-58.7029 1.087,-4.5559 1.861,-8.8692 2.296,-12.9541 l 0.03,0 c 0.379,-7.9623 6.931,-14.3314 14.987,-14.3314 8.056,0 14.609,6.3691 14.987,14.3314 l 0.07,0 c 0.435,4.0849 1.242,8.3982 2.329,12.9541 8.86,39.8773 31.207,58.7029 75.888,58.7029 32.746,-1.15 57.436,-9.9601 65.327,-44.8636 3.669,-16.225 4.234,-32.0896 0.656,-44.0764 l 2.591,0 c 4.445,0 8.002,-3.5564 8.002,-8.002 l 0,-9.8057 c 0,-0.3472 -0.02,-0.6804 -0.06,-1.0166 0,-0.011 0,-0.022 0,-0.033 -0.181,-1.8683 -0.983,-3.7049 -2.427,-5.1489 l -76.412,-76.3795 c -0.04,-0.048 -0.09,-0.085 -0.131,-0.1311 -1.341,-1.4914 -3.658,-2.3207 -6.133,-2.394 -0.319,-0.01 -0.662,-0.016 -0.984,0 -2.255,0.1118 -4.515,0.863 -6.165,2.3284 l -0.07,0.065 c -0.121,0.1071 -23.496,20.833 -37.059,32.4999 -3.539,3.0417 -3.927,8.2993 -0.885,11.839 l 6.723,7.838 c 3.041,3.5396 8.268,4.0762 11.904,0.951 0,0 15.584,-13.9067 25.253,-22.2678 18.831,18.8904 28.667,28.76 41.518,41.6497 -74.488,-3.1664 -180.385,-2.2379 -250.16,0.3936 12.81,-12.8486 22.903,-22.9741 41.912,-42.0433 9.669,8.361 25.252,22.2678 25.252,22.2678 3.637,3.1252 8.863,2.5886 11.905,-0.951 l 6.723,-7.838 c 3.041,-3.5397 2.654,-8.7973 -0.886,-11.839 -13.563,-11.6669 -36.938,-32.3928 -37.058,-32.4999 0,-3e-4 -0.07,-0.065 -0.07,-0.065 -1.886,-1.6747 -4.597,-2.4039 -7.149,-2.3284 z m -3.116,90.1861 c 13.011,0.1842 29.457,2.1354 42.175,9.4778 10.508,6.8629 11.268,18.3203 7.707,33.2541 -2.662,11.1603 -7.365,23.124 -16.3,30.3354 -10.408,8.4022 -23.656,11.1781 -37.615,11.4126 -23.275,-0.8171 -40.661,-7.1332 -46.405,-31.9095 -4.023,-17.3509 -2.178,-34.3439 5.247,-41.6825 10.094,-9.4155 30.034,-10.8879 45.191,-10.8879 z m 175.519,0 c 15.158,0 35.098,1.4725 45.192,10.8879 7.425,7.3385 9.27,24.3316 5.247,41.6825 -5.744,24.7763 -23.131,31.0924 -46.405,31.9095 -13.96,-0.2345 -27.207,-3.0104 -37.616,-11.4126 -8.934,-7.2113 -13.637,-19.1751 -16.299,-30.3354 -3.562,-14.9338 -2.801,-26.3912 7.707,-33.2541 12.718,-7.3424 29.164,-9.2936 42.174,-9.4778 z" id="path5091" style="fill:#ffffff;fill-opacity:1;stroke:none"/></g></g></svg>
