<?xml version="1.0" ?><!DOCTYPE svg  PUBLIC '-//W3C//DTD SVG 1.1//EN'  'http://www.w3.org/Graphics/SVG/1.1/DTD/svg11.dtd'><svg height="512px" id="Layer_1" style="enable-background:new 0 0 512 512;" version="1.1" viewBox="0 0 512 512" width="512px" xml:space="preserve" xmlns="http://www.w3.org/2000/svg" xmlns:xlink="http://www.w3.org/1999/xlink"><g><g><path d="M512.166,256.257c0,141.388-114.623,256.003-256.004,256.003    c-141.382,0-255.996-114.615-255.996-256.003c0-141.383,114.613-255.998,255.996-255.998    C397.543,0.259,512.166,114.874,512.166,256.257z" style="fill:#455A64;"/></g><path d="M257.206,352.538c-110.7,0-207.045-37.906-256.979-93.849   c1.313,140.26,115.37,253.57,255.935,253.57c139.794,0,253.354-112.075,255.883-251.276   C461.545,315.658,366.374,352.538,257.206,352.538z" style="fill:#263238;"/><path d="M494.274,162.26l-74.053-5.873l64.266-15.873c-2.534-4.977-5.199-9.875-8.04-14.661l-63.306,5.13   l51.811-22.762c-3.528-4.972-7.178-9.852-11.049-14.55l-54.605,13.589l41.374-28.361c-4.513-4.689-9.174-9.229-14.029-13.565   l-47.354,20.915l32.038-33.561c-5.418-4.142-11.026-8.041-16.773-11.746l-40.557,27.929l22.563-38.547   c-6.202-3.31-12.554-6.374-19.044-9.173l-32.998,34.735l11.963-42.697c-6.792-2.247-13.709-4.211-20.742-5.887l-23.598,40.557   l0.069-45.023c-7.116-1.003-14.313-1.741-21.602-2.145l-12.32,44.457L245.925,0.52c-7.27,0.283-14.452,0.896-21.555,1.778   l0.065,45.562L200.34,6.438c-6.973,1.551-13.862,3.324-20.608,5.432l12.326,44.016l-34.224-36.03   c-6.407,2.669-12.665,5.626-18.793,8.793l23.547,40.223L119.97,39.53c-5.645,3.556-11.179,7.289-16.518,11.263l33.839,35.455   L87.12,64.089c-4.75,4.183-9.354,8.528-13.784,13.045l43.951,30.125L59.163,92.794c-3.765,4.531-7.331,9.22-10.775,14.002   l55.051,24.188l-67.362-5.459c-2.739,4.591-5.302,9.29-7.753,14.062l68.035,16.801l-78.439,6.221   c-1.704,4.332-3.292,8.709-4.763,13.148l83.202,6.602L5.333,204.836c-0.743,3.649-1.383,7.335-1.968,11.035l100.073-8.11   L0.245,253.095c-0.009,1.059-0.079,2.104-0.079,3.162c0,1.458,0.088,2.893,0.107,4.346l117.014-29.118L5.435,308.146   c0.163,0.789,0.372,1.56,0.539,2.345l131.317-57.995l25.297,17.376l29.47,12.985l32.376,8.027l33.854,2.711l33.853-2.711   l32.377-8.027l29.479-12.985l25.292-17.376l127.459,56.295c0.223-1.072,0.413-2.154,0.627-3.227l-108.077-74.081l112.784,28.068   c0.015-1.1,0.084-2.19,0.084-3.296c0-1.694-0.093-3.361-0.13-5.046l-98.895-43.449l95.766,7.762   c-0.636-3.96-1.347-7.897-2.159-11.796l-86.526-21.37l79.066-6.272C497.746,171.415,496.075,166.81,494.274,162.26z" style="fill:#C5CAE9;"/><g><g><g><path d="M153.266,298.787c0,10.715-8.682,19.396-19.396,19.396h-21.94      c-10.715,0-19.396-8.682-19.396-19.396v-25.158c0-10.715,8.682-19.396,19.396-19.396h21.94c10.715,0,19.396,8.681,19.396,19.396      V298.787z" style="fill:#676767;"/><path d="M124.863,298.787v-25.158c0-8.913,6.017-16.406,14.206-18.676c-1.662-0.46-3.398-0.72-5.2-0.72h-21.94      c-10.715,0-19.396,8.681-19.396,19.396v25.158c0,10.715,8.682,19.396,19.396,19.396h21.94c1.801,0,3.538-0.265,5.2-0.725      C130.879,315.185,124.863,307.696,124.863,298.787z"/></g><g><path d="M359.048,298.787c0,10.715,8.69,19.396,19.405,19.396h21.94c10.706,0,19.396-8.682,19.396-19.396      v-25.158c0-10.715-8.69-19.396-19.396-19.396h-21.94c-10.715,0-19.405,8.681-19.405,19.396V298.787z" style="fill:#676767;"/><path d="M387.46,298.787v-25.158c0-8.913-6.017-16.406-14.206-18.676c1.652-0.46,3.398-0.72,5.199-0.72h21.94      c10.706,0,19.396,8.681,19.396,19.396v25.158c0,10.715-8.69,19.396-19.396,19.396h-21.94c-1.801,0-3.547-0.265-5.199-0.725      C381.443,315.185,387.46,307.696,387.46,298.787z"/></g><g><path d="M370.283,283.518c0,4.884-3.965,8.845-8.849,8.845h-41.839c-4.884,0-8.848-3.961-8.848-8.845l0,0      c0-4.893,3.964-8.849,8.848-8.849h41.839C366.318,274.669,370.283,278.625,370.283,283.518L370.283,283.518z" style="fill:#2E2E2C;"/><path d="M201.575,283.509c0,4.884-3.965,8.849-8.849,8.849h-41.838c-4.884,0-8.849-3.965-8.849-8.849l0,0      c0-4.889,3.965-8.849,8.849-8.849h41.838C197.61,274.66,201.575,278.62,201.575,283.509L201.575,283.509z" style="fill:#2E2E2C;"/></g></g><g><path d="M374.813,124.159l-35.189-29.201l-77.103-5.237v1.56l-89.822,3.677l-35.19,29.201     c0,0-62.877,69.619-62.125,101.059c0.743,31.439,6.732,36.685,6.732,36.685l8.979,19.461l11.234,4.494h160.193h6.741h140.731     l11.235-4.494l8.979-19.461c0,0,5.988-5.246,6.74-36.685C437.691,193.778,374.813,124.159,374.813,124.159z" style="fill:#676767;"/><path d="M436.42,219.233c-5.98-33.486-61.606-95.074-61.606-95.074l-35.189-29.201l-77.103-5.237v1.56     l-89.822,3.677l-35.19,29.201c0,0-55.626,61.588-61.605,95.074H436.42z" style="fill:#212121;"/><path d="M302.734,152.353c0,10.227-8.69,18.519-19.396,18.519h-55.506     c-10.715,0-19.396-8.292-19.396-18.519v-42.177c0-10.223,8.682-18.515,19.396-18.515h55.506c10.705,0,19.396,8.292,19.396,18.515     V152.353z" style="opacity:0.5;fill:#676767;"/><path d="M324.137,283.509c0,9.331-7.559,16.894-16.89,16.894H205.085c-9.332,0-16.898-7.563-16.898-16.894     l0,0c0-9.332,7.567-16.895,16.898-16.895h102.162C316.578,266.614,324.137,274.177,324.137,283.509L324.137,283.509z" style="fill:#676767;"/><polygon points="83.842,265.645 91.094,281.363 102.328,285.857 262.521,285.857 269.263,285.857      409.994,285.857 421.229,281.363 428.48,265.645    " style="fill:#B6B8B7;"/><path d="M301.249,146.452c0,4.759-3.854,8.617-8.616,8.617h-72.934c-4.763,0-8.625-3.858-8.625-8.617     v-20.315c0-4.759,3.862-8.617,8.625-8.617h72.934c4.763,0,8.616,3.858,8.616,8.617V146.452z" style="fill:#D1D1D1;"/><path d="M292.633,117.52h-72.934c-4.763,0-8.625,3.858-8.625,8.617v3.454c0,4.759,3.862,8.617,8.625,8.617     h72.934c4.763,0,8.616-3.858,8.616-8.617v-3.454C301.249,121.378,297.396,117.52,292.633,117.52z" style="fill:#B6B8B7;"/><path d="M281.193,120.9c0,4.763-3.853,8.625-8.616,8.625h-32.832c-4.754,0-8.616-3.862-8.616-8.625     v-17.243c0-4.763,3.862-8.625,8.616-8.625h32.832c4.764,0,8.616,3.862,8.616,8.625V120.9z" style="fill:#676767;"/><path d="M263.19,99.229c0,1.212-1.932,2.191-4.317,2.191h-5.423c-2.386,0-4.308-0.979-4.308-2.191V68.031     c0-1.216,1.922-2.191,4.308-2.191h5.423c2.386,0,4.317,0.975,4.317,2.191V99.229z" style="fill:#212121;"/><path d="M289.652,197.659c0,2.377-1.932,4.308-4.309,4.308h-58.355c-2.386,0-4.318-1.931-4.318-4.308     v-14.856c0-2.386,1.932-4.318,4.318-4.318h58.355c2.377,0,4.309,1.932,4.309,4.318V197.659z" style="fill:#676767;"/></g><g><path d="M417.45,206.972c-5.023-10.418-12.367-21.788-19.935-32.331h-12.312v32.331H417.45z" style="fill:#EAAC0B;"/><path d="M114.816,174.642c-7.576,10.543-14.921,21.913-19.944,32.331h32.228v-32.331H114.816z" style="fill:#EAAC0B;"/><rect height="32.331" style="fill:#B31B0E;" width="69.229" x="315.975" y="174.642"/><rect height="32.331" style="fill:#B31B0E;" width="69.256" x="127.101" y="174.642"/></g><g><g><rect height="108.301" width="65.737" x="141.112" y="86.879"/><g><g><g><rect height="19.197" style="fill:#676767;" width="24.197" x="146.72" y="92.85"/><rect height="19.197" style="fill:#676767;" width="24.187" x="177.044" y="92.85"/></g><g><rect height="19.197" style="fill:#676767;" width="24.197" x="146.72" y="118.569"/><rect height="19.197" style="fill:#676767;" width="24.187" x="177.044" y="118.569"/></g><g><rect height="19.202" style="fill:#676767;" width="24.197" x="146.72" y="144.289"/><rect height="19.202" style="fill:#676767;" width="24.187" x="177.044" y="144.289"/></g><g><rect height="19.202" style="fill:#676767;" width="24.197" x="146.72" y="170.008"/><rect height="19.202" style="fill:#676767;" width="24.187" x="177.044" y="170.008"/></g></g></g></g><g><rect height="108.301" width="65.728" x="305.483" y="86.879"/><g><g><g><rect height="19.197" style="fill:#676767;" width="24.178" x="311.101" y="92.85"/><rect height="19.197" style="fill:#676767;" width="24.188" x="341.416" y="92.85"/></g><g><rect height="19.197" style="fill:#676767;" width="24.178" x="311.101" y="118.569"/><rect height="19.197" style="fill:#676767;" width="24.188" x="341.416" y="118.569"/></g><g><rect height="19.202" style="fill:#676767;" width="24.178" x="311.101" y="144.289"/><rect height="19.202" style="fill:#676767;" width="24.188" x="341.416" y="144.289"/></g><g><rect height="19.202" style="fill:#676767;" width="24.178" x="311.101" y="170.008"/><rect height="19.202" style="fill:#676767;" width="24.188" x="341.416" y="170.008"/></g></g></g></g></g></g><g><path d="M462.845,339.042c-8.319,3.334-27.595,5.627-13.542-10.417c6.991-7.98,15.343-11.862,15.231-11.871    c-19.164-1.723-41.68,18.147-51.054,14.735c-9.373-3.408-11.304-4.197-12.246-8.051c-0.934-3.853,13.235-10.473,13.077-10.469    c-16.1,0.799-18.365,6.481-26.359,6.527c-7.985,0.042-10.26-1.908-10.26-1.908l6.587,5.679c0.433,0.218,0.859,0.436,1.342,0.668    c5.637,2.688,8.668-1.964,14.142-2.271c0.139-0.004-5.381,6.519-3.408,9.174c1.969,2.646,3.603,3.784,11.393,9.03    c7.79,5.26,17.623-10.502,31.755-2.939c0.084,0.042-9.521,2.4-12.627,10.325c-2.275,5.817,7.224,12.368,14.54,8.626    c19.024-9.717,28.527-8.904,28.527-8.904s-19.466,8.338-22.307,19.842c-0.613,2.512,2.451,9.568,9.99,9.16    c12.345-0.664,21.347-8.427,28.645-7.466c1.411-2.892,2.739-5.826,4.048-8.778c-4.508,1.146-8.756,2.502-11.838,2.771    c-9.025,0.784-9.471-3.729-5.283-10.246c4.447-6.927,19.159-13.25,26.128-15.938c0.25-0.757,0.52-1.505,0.761-2.262    C494.664,332.794,481.893,331.4,462.845,339.042z" style="fill:#FF9100;"/><path d="M384.279,323.268c-4.628-2.34-6.56-3.979-6.56-3.979l91.522,78.854    c0.241-0.353,0.454-0.72,0.691-1.077L384.279,323.268z" style="fill:#FFFF00;"/><path d="M457.626,375.979c-7.539,0.408-10.604-6.648-9.99-9.16c2.841-11.504,22.307-19.842,22.307-19.842    s-9.503-0.813-28.527,8.904c-7.316,3.742-16.815-2.809-14.54-8.626c3.105-7.925,12.711-10.283,12.627-10.325    c-14.132-7.563-23.965,8.199-31.755,2.939c-7.79-5.246-9.424-6.384-11.393-9.03c-1.973-2.655,3.547-9.178,3.408-9.174    c-5.474,0.307-8.505,4.959-14.142,2.271c-0.482-0.232-0.909-0.45-1.342-0.668l85.654,73.797    c6.025-9.127,11.499-18.653,16.337-28.552C478.973,367.552,469.971,375.314,457.626,375.979z" style="fill:#FFFF00;"/><path d="M29.326,374.896c2.391,4.559,4.875,9.058,7.525,13.454    C35.519,381.944,32.231,377.617,29.326,374.896z" style="fill:#FF9100;"/><path d="M57.682,376.238c7.54,0.408,10.604-6.648,9.986-9.16c-2.836-11.504-22.307-19.842-22.307-19.842    s9.508-0.813,28.528,8.904c7.316,3.742,16.815-2.809,14.54-8.626c-3.101-7.925-12.707-10.283-12.623-10.324    c14.132-7.563,23.965,8.198,31.75,2.938c7.79-5.246,9.424-6.384,11.397-9.03c1.973-2.655-3.552-9.178-3.412-9.173    c5.478,0.306,8.509,4.958,14.141,2.27c0.483-0.231,0.91-0.45,1.347-0.668l6.587-5.678c0,0-2.279,1.949-10.265,1.908    c-7.989-0.047-10.26-5.729-26.355-6.527c-0.163-0.005,14.006,6.615,13.078,10.469c-0.942,3.853-2.874,4.643-12.247,8.05    c-9.378,3.412-31.889-16.458-51.054-14.735c-0.111,0.009,8.236,3.891,15.228,11.871c14.053,16.044-5.218,13.751-13.538,10.418    c-23.709-9.513-37.706-5.037-39.879-4.225c0.033,0.093,0.065,0.186,0.093,0.278c3.12,1.096,23.974,8.672,29.428,17.163    c4.192,6.519,3.747,11.03-5.278,10.246c-3.807-0.33-9.387-2.312-15.032-3.519c1.522,3.463,3.11,6.894,4.782,10.273    C34.302,365.969,43.907,375.495,57.682,376.238z" style="fill:#FF9100;"/><path d="M131.028,323.527l-87.469,75.357c0.242,0.353,0.483,0.705,0.715,1.059l93.313-80.395    C137.588,319.549,135.652,321.188,131.028,323.527z" style="fill:#FFFF00;"/><path d="M115.541,321.926c-0.14-0.005,5.385,6.518,3.412,9.173c-1.973,2.646-3.607,3.784-11.397,9.03    c-7.785,5.26-17.618-10.502-31.75-2.938c-0.083,0.041,9.522,2.399,12.623,10.324c2.275,5.817-7.224,12.368-14.54,8.626    c-19.021-9.717-28.528-8.904-28.528-8.904s19.471,8.338,22.307,19.842c0.618,2.512-2.446,9.568-9.986,9.16    c-13.774-0.743-23.379-10.27-31.104-6.718c0.891,1.806,1.82,3.594,2.749,5.376c2.906,2.721,6.193,7.048,7.525,13.454    c2.154,3.565,4.387,7.08,6.708,10.534l87.469-75.357c-0.437,0.218-0.864,0.437-1.347,0.668    C124.05,326.884,121.019,322.231,115.541,321.926z" style="fill:#FFFF00;"/></g></g></svg>