<?xml version="1.0" ?><svg enable-background="new 0 0 515.91 728.5" height="512" id="Layer_1" version="1.1" viewBox="0 0 512.00003 512" width="512" xml:space="preserve" xmlns="http://www.w3.org/2000/svg" xmlns:cc="http://creativecommons.org/ns#" xmlns:dc="http://purl.org/dc/elements/1.1/" xmlns:inkscape="http://www.inkscape.org/namespaces/inkscape" xmlns:rdf="http://www.w3.org/1999/02/22-rdf-syntax-ns#" xmlns:sodipodi="http://sodipodi.sourceforge.net/DTD/sodipodi-0.dtd" xmlns:svg="http://www.w3.org/2000/svg"><defs id="defs7"/><g id="g4476" transform="translate(-0.00392,-0.003935)"><path d="m 512.00787,256.00394 c 0,141.37795 -114.62598,256.00393 -256.00393,256.00393 C 114.62598,512.00787 0,397.38189 0,256.00394 0,114.62598 114.62598,0 256.00394,0 397.38189,0 512.00787,114.62598 512.00787,256.00394 z" id="path4478" style="fill:#c64731;fill-opacity:1;fill-rule:nonzero;stroke:none"/><path d="m 225.1063,76.003937 c -2.76378,0 -5.38583,2.019685 -6.09449,4.641732 L 167.38583,272.40945 c -0.49607,1.84252 -0.1063,3.89764 1.06299,5.42126 1.16929,1.52362 3.08268,2.44488 4.99606,2.44488 l 59.0315,0 -41.56299,147.75591 c -0.8504,2.90551 0.77952,6.30708 3.57874,7.47637 2.76378,1.16929 6.34252,0 7.86614,-2.62204 l 124.40551,-216 c 1.09842,-1.91339 1.09842,-4.3937 0,-6.27166 -1.06299,-1.87795 -3.22441,-3.11811 -5.42126,-3.11811 l -55.80709,0 78.30709,-121.854328 c 1.20472,-1.877953 1.31102,-4.429134 0.2126,-6.377953 -1.06299,-1.948818 -3.25984,-3.259842 -5.49213,-3.259842 l -113.45669,0 z" id="path4480" style="fill:#ffffff;fill-opacity:1;fill-rule:nonzero;stroke:none"/></g></svg>
