<?xml version="1.0" ?><svg height="16" viewBox="0 0 16 16" width="16" xmlns="http://www.w3.org/2000/svg"><path d="M71.0011593,11.2686793 C71.5988616,11.6144315 72.0009937,12.2606683 72.0009937,13.000828 C72.0009937,14.1052146 71.1057114,15.0004968 70.0013249,15.0004968 C68.8969383,15.0004968 68.0016561,14.1052146 68.0016561,13.000828 C68.0016561,12.2606683 68.4037881,11.6144315 69.0014905,11.2686793 L69.0014905,10.0013249 L67.824933,8.82476738 C67.5739024,8.93829311 67.2952423,9.00149049 67.0018217,9.00149049 C65.8974351,9.00149049 65.0021529,8.10620828 65.0021529,7.0018217 C65.0021529,5.89743513 65.8974351,5.00215292 67.0018217,5.00215292 C68.1062083,5.00215292 69.0014905,5.89743513 69.0014905,7.0018217 C69.0014905,7.15571881 68.9841053,7.30555539 68.9511918,7.44947465 L70.0013249,8.50157329 L71.0514579,7.44947465 C71.0185444,7.30555539 71.0011593,7.15571881 71.0011593,7.0018217 C71.0011593,5.89743513 71.8964415,5.00215292 73.000828,5.00215292 C74.1052146,5.00215292 75.0004968,5.89743513 75.0004968,7.0018217 C75.0004968,8.10620828 74.1052146,9.00149049 73.000828,9.00149049 C72.7074074,9.00149049 72.4287473,8.93829311 72.1777168,8.82476738 L71.0011593,10.0013249 L71.0011593,11.2686793 Z M62,3.99373004 C62,2.89262334 62.8943656,2 63.99373,2 L76.0036202,2 C77.1047269,2 77.9973502,2.89436562 77.9973502,3.99373004 L77.9973502,16.0036202 C77.9973502,17.1047269 77.1029846,17.9973502 76.0036202,17.9973502 L63.99373,17.9973502 C62.8926233,17.9973502 62,17.1029846 62,16.0036202 L62,3.99373004 Z M64.0023185,4.50258299 L64.0023185,15.5000668 C64.0023185,15.7713686 64.2262946,16.0003312 64.502583,16.0003312 L75.5000668,16.0003312 C75.7713686,16.0003312 76.0003312,15.7763552 76.0003312,15.5000668 L76.0003312,4.50258299 C76.0003312,4.23128118 75.7763552,4.00231853 75.5000668,4.00231853 L64.502583,4.00231853 C64.2312812,4.00231853 64.0023185,4.22629456 64.0023185,4.50258299 Z M68.0016561,7.0018217 C68.0016561,6.44962842 67.554015,6.00198731 67.0018217,6.00198731 C66.4496284,6.00198731 66.0019873,6.44962842 66.0019873,7.0018217 C66.0019873,7.55401499 66.4496284,8.00165609 67.0018217,8.00165609 C67.554015,8.00165609 68.0016561,7.55401499 68.0016561,7.0018217 Z M74.0006624,7.0018217 C74.0006624,6.44962842 73.5530213,6.00198731 73.000828,6.00198731 C72.4486348,6.00198731 72.0009937,6.44962842 72.0009937,7.0018217 C72.0009937,7.55401499 72.4486348,8.00165609 73.000828,8.00165609 C73.5530213,8.00165609 74.0006624,7.55401499 74.0006624,7.0018217 Z M71.0011593,13.000828 C71.0011593,12.4486348 70.5535182,12.0009937 70.0013249,12.0009937 C69.4491316,12.0009937 69.0014905,12.4486348 69.0014905,13.000828 C69.0014905,13.5530213 69.4491316,14.0006624 70.0013249,14.0006624 C70.5535182,14.0006624 71.0011593,13.5530213 71.0011593,13.000828 Z" fill="#000000" fill-rule="evenodd" transform="translate(-62 -2)"/></svg>
