<?xml version="1.0" ?><svg height="24" viewBox="0 0 24 24" width="24" xmlns="http://www.w3.org/2000/svg"><title/><g id="flux-capacitor"><path d="M6,5.005a1,1,0,1,0,1,1A1,1,0,0,0,6,5.005Zm6,12a1,1,0,1,0,1,1A1,1,0,0,0,12,17.005ZM19,1H5a4,4,0,0,0-4,4v14a4,4,0,0,0,4,4H19a4,4,0,0,0,4-4v-14A4,4,0,0,0,19,1Zm-1,8a2.983,2.983,0,0,1-1.286-.3L13,12.419v2.769a3,3,0,1,1-2,0V12.419L7.286,8.705A3.029,3.029,0,1,1,8.7,7.291l3.3,3.3,3.3-3.3A2.969,2.969,0,0,1,15,6.005a3,3,0,1,1,3,3Zm0-4a1,1,0,1,0,1,1A1,1,0,0,0,18,5.005Z" data-name="flux-capacitor" id="flux-capacitor-2"/></g></svg>
