<?xml version="1.0" ?><!DOCTYPE svg  PUBLIC '-//W3C//DTD SVG 1.1//EN'  'http://www.w3.org/Graphics/SVG/1.1/DTD/svg11.dtd'><svg height="512px" id="Layer_1" style="enable-background:new 0 0 512 512;" version="1.1" viewBox="0 0 512 512" width="512px" xml:space="preserve" xmlns="http://www.w3.org/2000/svg" xmlns:xlink="http://www.w3.org/1999/xlink"><g><path d="M511.546,255.826c0,141.393-114.623,256.003-256.005,256.003S-0.454,397.219-0.454,255.826   c0-141.383,114.613-255.998,255.995-255.998S511.546,114.443,511.546,255.826z" style="fill:#1A237E;"/><path d="M290.058,326.522v-8.319h6.871l-3.7-17.697h-4.21v-6.435h-61.142v6.435h-4.206l-3.7,17.697h6.866   v8.319h-7.925v179.387v3.269c9.958,1.43,20.097,2.308,30.39,2.567c0.148,0.005,0.302,0.005,0.45,0.009   c1.922,0.047,3.854,0.075,5.789,0.075c1.982,0,3.96-0.028,5.938-0.075c0.019,0,0.037,0,0.056,0   c12.392-0.297,24.555-1.504,36.458-3.495v-2.35V326.522H290.058z" style="fill:#E65100;"/><path d="M181.053,326.522v-8.319h6.866l-3.7-17.697h-4.206v-6.435h-61.146v6.435h-4.206l-3.7,17.697h6.866   v8.319h-7.924v139.805c5.167,3.575,10.469,6.964,15.9,10.167v-32.14h-3.556v-9.708h47.242v9.708h-3.565v51.313   c7.521,2.809,15.218,5.265,23.059,7.372V326.522H181.053z M167.696,331.954h-3.565v56.146h3.565v9.703h-47.242v-9.703h3.556   v-56.146h-3.556v-9.712h47.242V331.954z" style="fill:#E65100;"/><path d="M72.043,326.522v-8.319h6.866l-3.7-17.697h-4.206v-6.435H2.401   c1.435,9.577,3.431,18.97,5.896,28.171h43.245v9.703h-3.556v56.155h3.556v9.703h-9.016c10.78,16.146,23.375,30.966,37.446,44.238   v-115.52H72.043z" style="fill:#E65100;"/><path d="M399.072,326.522v-8.319h6.862l-3.696-17.697h-4.21v-6.435h-61.142v6.435h-4.211l-3.695,17.697   h6.861v8.319h-7.92v174.865c5.831-1.718,11.588-3.612,17.237-5.72V444.35h-3.556v-9.703h47.242v9.703h-3.557v32.145   c7.488-4.419,14.74-9.183,21.713-14.308V326.522H399.072z M387.053,331.945h-3.556v56.155h3.556v9.703h-47.241v-9.703h3.556   v-56.155h-3.556v-9.703h47.241V331.945z" style="fill:#E65100;"/><path d="M64.387,270.984h8.324v-6.895H-0.245c0.121,3.77,0.325,7.521,0.608,11.244h64.024V270.984z" style="fill:#F57F17;"/><path d="M62.001,259.735v-3.129v-4.838H-0.352c-0.019,1.356-0.102,2.702-0.102,4.058   c0,0.26,0.019,0.516,0.019,0.78c0.009,2.507,0.111,4.986,0.19,7.483h72.957v-4.354H62.001z" style="fill:#FFA726;"/><path d="M64.387,289.717v-0.106v-12.196v-2.08H0.363c0.051,0.696,0.098,1.393,0.158,2.08   c0.339,4.09,0.78,8.161,1.313,12.196c0.195,1.48,0.344,2.984,0.566,4.461h68.602v-4.354H64.387z" style="fill:#FFA726;"/><path d="M258.442,159.94L75.278,247.414h366.333L258.442,159.94z M258.447,238.519   c-17.01,0-30.803-13.788-30.803-30.798c0-17.02,13.793-30.808,30.803-30.808c17.015,0,30.803,13.788,30.803,30.808   C289.25,224.731,275.462,238.519,258.447,238.519z" style="fill:#E65100;"/><polygon points="258.442,131.314 46.314,232.623 57.586,243.886 63.867,240.887 258.442,147.971    453.022,240.896 459.304,243.895 470.576,232.623  " style="fill:#F9A825;"/><path d="M258.447,176.913c-17.01,0-30.803,13.788-30.803,30.808c0,17.01,13.793,30.798,30.803,30.798   c17.015,0,30.803-13.788,30.803-30.798C289.25,190.701,275.462,176.913,258.447,176.913z M258.592,234.415   c-14.643,0-26.556-11.913-26.556-26.555s11.913-26.56,26.556-26.56c14.642,0,26.555,11.917,26.555,26.56   S273.233,234.415,258.592,234.415z" style="fill:#F8F0ED;"/><path d="M258.592,185.223c-12.484,0-22.637,10.153-22.637,22.637c0,12.488,10.153,22.637,22.637,22.637   c12.483,0,22.636-10.148,22.636-22.637C281.228,195.376,271.075,185.223,258.592,185.223z" style="fill:#9FA8DA;"/><path d="M258.592,181.3c-14.643,0-26.556,11.917-26.556,26.56   s11.913,26.555,26.556,26.555c14.642,0,26.555-11.913,26.555-26.555S273.233,181.3,258.592,181.3z M258.592,230.497   c-12.484,0-22.637-10.148-22.637-22.637c0-12.484,10.153-22.637,22.637-22.637c12.483,0,22.636,10.153,22.636,22.637   C281.228,220.348,271.075,230.497,258.592,230.497z" style="fill:#0097A7;fill-opacity:0.45;"/><polygon points="78.909,318.203 110.96,318.203 114.661,300.506 75.209,300.506  " style="fill:#FFB74D;"/><path d="M79.972,326.522v115.52c9.345,8.816,19.34,16.94,29.93,24.285V326.522H79.972z" style="fill:#FFB74D;"/><polygon points="110.96,318.203 78.909,318.203 72.043,318.203 72.043,326.522 79.972,326.522    109.902,326.522 117.827,326.522 117.827,318.203  " style="fill:#F57F17;"/><polygon points="187.919,318.203 219.971,318.203 223.67,300.506 184.219,300.506  " style="fill:#FFB74D;"/><path d="M188.982,326.522V503.04c3.914,1.05,7.869,2.001,11.857,2.869   c5.952,1.296,11.973,2.396,18.073,3.269v-3.269V326.522H188.982z" style="fill:#FFB74D;"/><polygon points="219.971,318.203 187.919,318.203 181.053,318.203 181.053,326.522 188.982,326.522    218.912,326.522 226.837,326.522 226.837,318.203  " style="fill:#F57F17;"/><polygon points="296.929,318.203 328.98,318.203 332.676,300.506 293.229,300.506  " style="fill:#FFB74D;"/><path d="M297.992,326.522v179.387v2.35c4.117-0.688,8.203-1.467,12.256-2.35   c5.971-1.3,11.866-2.813,17.674-4.521V326.522H297.992z" style="fill:#FFB74D;"/><polygon points="328.98,318.203 296.929,318.203 290.058,318.203 290.058,326.522 297.992,326.522    327.922,326.522 335.842,326.522 335.842,318.203  " style="fill:#F57F17;"/><polygon points="405.935,318.203 437.985,318.203 441.686,300.506 402.238,300.506  " style="fill:#FFB74D;"/><path d="M407.002,326.522v135.664c10.627-7.809,20.641-16.397,29.926-25.72V326.522H407.002z" style="fill:#FFB74D;"/><polygon points="72.711,259.735 72.711,264.09 72.711,270.984 444.188,270.984 444.188,264.09    444.188,259.735  " style="fill:#F9A825;"/><polygon points="227.876,289.61 227.876,289.717 227.876,294.071 289.019,294.071 289.019,289.717    289.019,289.61  " style="fill:#F57F17;"/><rect height="0.106" style="fill:#D9C6A6;" width="6.616" x="64.387" y="289.61"/><polygon points="336.887,289.61 336.887,289.717 336.887,294.071 398.028,294.071 398.028,289.717    398.028,289.61  " style="fill:#F57F17;"/><polygon points="118.867,289.61 118.867,289.717 118.867,294.071 180.013,294.071 180.013,289.717    180.013,289.61  " style="fill:#F57F17;"/><polygon points="71.003,289.066 71.003,289.61 71.003,289.717 71.003,294.071 71.003,300.506    75.209,300.506 114.661,300.506 118.867,300.506 118.867,294.071 118.867,289.717 118.867,289.61 118.867,289.066  " style="fill:#F57F17;"/><polygon points="180.013,289.066 180.013,289.61 180.013,289.717 180.013,294.071 180.013,300.506    184.219,300.506 223.67,300.506 227.876,300.506 227.876,294.071 227.876,289.717 227.876,289.61 227.876,289.066  " style="fill:#F57F17;"/><polygon points="289.019,289.066 289.019,289.61 289.019,289.717 289.019,294.071 289.019,300.506    293.229,300.506 332.676,300.506 336.887,300.506 336.887,294.071 336.887,289.717 336.887,289.61 336.887,289.066  " style="fill:#F57F17;"/><polygon points="398.028,289.066 398.028,289.61 398.028,289.717 398.028,294.071 398.028,300.506    402.238,300.506 441.686,300.506 445.896,300.506 445.896,294.071 445.896,289.717 445.896,289.61 445.896,289.066  " style="fill:#F57F17;"/><path d="M125.803,444.354v32.14c1.226,0.725,2.465,1.431,3.705,2.136v-30.288h12.776v37.075   c2.368,1.17,4.763,2.284,7.168,3.38v-40.455h12.767v45.859c1.235,0.492,2.46,1.003,3.705,1.467v-51.313H125.803z" style="fill:#466D7E;"/><polygon points="165.923,443.709 165.923,444.354 169.488,444.354 169.488,434.646 122.247,434.646    122.247,444.354 125.803,444.354 125.803,443.709  " style="fill:#7DD7F2;"/><rect height="0.646" style="fill:#7DD7F2;" width="40.12" x="125.803" y="443.709"/><path d="M142.283,448.342h-12.776v30.288c4.192,2.368,8.44,4.652,12.776,6.787V448.342z" style="fill:#466D7E;"/><path d="M142.283,448.342h-12.776v30.288c4.192,2.368,8.44,4.652,12.776,6.787V448.342z" style="opacity:0.54;fill:#7DD7F2;"/><path d="M162.218,448.342h-12.767v40.455c4.197,1.913,8.454,3.714,12.767,5.404V448.342z" style="fill:#466D7E;"/><path d="M162.218,448.342h-12.767v40.455c4.197,1.913,8.454,3.714,12.767,5.404V448.342z" style="opacity:0.54;fill:#7DD7F2;"/><path d="M345.159,444.35v51.318c1.249-0.464,2.475-0.984,3.714-1.467v-45.854h12.768v40.446   c2.404-1.096,4.8-2.206,7.168-3.376v-37.07h12.767v30.283c1.244-0.705,2.483-1.416,3.714-2.136V444.35H345.159z" style="fill:#466D7E;"/><polygon points="385.289,443.709 385.289,444.35 388.846,444.35 388.846,434.646 341.604,434.646    341.604,444.35 345.159,444.35 345.159,443.709  " style="fill:#7DD7F2;"/><rect height="0.641" style="fill:#7DD7F2;" width="40.13" x="345.159" y="443.709"/><path d="M361.641,448.347h-12.768v45.854c4.318-1.69,8.57-3.491,12.768-5.408V448.347z" style="fill:#466D7E;"/><path d="M361.641,448.347h-12.768v45.854c4.318-1.69,8.57-3.491,12.768-5.408V448.347z" style="opacity:0.54;fill:#7DD7F2;"/><path d="M381.575,448.347h-12.767v37.07c4.331-2.145,8.579-4.419,12.767-6.787V448.347z" style="fill:#466D7E;"/><path d="M381.575,448.347h-12.767v37.07c4.331-2.145,8.579-4.419,12.767-6.787V448.347z" style="opacity:0.54;fill:#7DD7F2;"/><path d="M124.011,388.101h40.12v-56.146h-40.12V388.101z M147.659,335.938h12.767v48.171h-12.767V335.938z    M140.491,335.938v48.171h-12.776v-48.171H140.491z" style="fill:#466D7E;"/><polygon points="120.455,331.954 124.011,331.954 124.011,331.305 164.131,331.305 164.131,331.954    167.696,331.954 167.696,322.242 120.455,322.242  " style="fill:#7DD7F2;"/><rect height="0.649" style="fill:#7DD7F2;" width="40.12" x="124.011" y="331.305"/><polygon points="124.011,392.14 124.011,388.101 120.455,388.101 120.455,397.804 167.696,397.804    167.696,388.101 164.131,388.101 164.131,392.14  " style="fill:#7DD7F2;"/><rect height="4.039" style="fill:#7DD7F2;" width="40.12" x="124.011" y="388.101"/><rect height="48.171" style="fill:#466D7E;" width="12.776" x="127.715" y="335.938"/><rect height="48.171" style="opacity:0.54;fill:#7DD7F2;" width="12.776" x="127.715" y="335.938"/><rect height="48.171" style="fill:#466D7E;" width="12.767" x="147.659" y="335.938"/><rect height="48.171" style="opacity:0.54;fill:#7DD7F2;" width="12.767" x="147.659" y="335.938"/><rect height="48.166" style="fill:#466D7E;" width="12.768" x="347.081" y="335.947"/><rect height="48.166" style="fill:#466D7E;" width="12.767" x="367.017" y="335.947"/><g><path d="M343.367,388.101h40.13v-56.155h-40.13V388.101z M367.017,335.947h12.767v48.166h-12.767V335.947z     M359.849,335.947v48.166h-12.768v-48.166H359.849z" style="fill:#466D7E;"/><polygon points="339.812,322.242 339.812,331.945 343.367,331.945 383.497,331.945 387.053,331.945     387.053,322.242   " style="fill:#7DD7F2;"/><polygon points="383.497,388.101 343.367,388.101 339.812,388.101 339.812,397.804 387.053,397.804     387.053,388.101   " style="fill:#7DD7F2;"/><rect height="48.166" style="opacity:0.54;fill:#7DD7F2;" width="12.768" x="347.081" y="335.947"/><rect height="48.166" style="opacity:0.54;fill:#7DD7F2;" width="12.767" x="367.017" y="335.947"/></g><g><path d="M238.485,388.101h40.129v-56.155h-40.129V388.101z M262.134,335.947H274.9v48.166h-12.767V335.947z     M254.965,335.947v48.166h-12.767v-48.166H254.965z" style="fill:#466D7E;"/><polygon points="234.929,322.242 234.929,331.945 238.485,331.945 278.614,331.945 282.171,331.945     282.171,322.242   " style="fill:#7DD7F2;"/><polygon points="278.614,388.101 238.485,388.101 234.929,388.101 234.929,397.804 282.171,397.804     282.171,388.101   " style="fill:#7DD7F2;"/><rect height="48.166" style="opacity:0.54;fill:#7DD7F2;" width="12.767" x="242.199" y="335.947"/><rect height="48.166" style="opacity:0.54;fill:#7DD7F2;" width="12.767" x="262.134" y="335.947"/></g><g><path d="M238.485,500.506h40.129V444.35h-40.129V500.506z M262.134,448.347H274.9v48.171h-12.767V448.347z     M254.965,448.347v48.171h-12.767v-48.171H254.965z" style="fill:#466D7E;"/><polygon points="234.929,434.646 234.929,444.35 238.485,444.35 278.614,444.35 282.171,444.35     282.171,434.646   " style="fill:#7DD7F2;"/><polygon points="278.614,500.506 238.485,500.506 234.929,500.506 234.929,510.208 282.171,510.208     282.171,500.506   " style="fill:#7DD7F2;"/><rect height="48.171" style="opacity:0.54;fill:#7DD7F2;" width="12.767" x="242.199" y="448.347"/><rect height="48.171" style="opacity:0.54;fill:#7DD7F2;" width="12.767" x="262.134" y="448.347"/></g><path d="M12.405,335.947h11.931v29.869c2.247,4.708,4.647,9.332,7.168,13.882v-43.751h12.767v48.166H34.044   c0.766,1.323,1.5,2.679,2.289,3.987h11.652v-56.155H11.05C11.472,333.291,11.964,334.605,12.405,335.947z" style="fill:#466D7E;"/><path d="M47.985,331.3v0.646h3.556v-9.703H8.297c0.813,3.036,1.648,6.067,2.572,9.058H47.985z" style="fill:#7DD7F2;"/><path d="M10.869,331.3c0.065,0.214,0.116,0.432,0.181,0.646h36.936V331.3H10.869z" style="fill:#7DD7F2;"/><path d="M51.542,388.101h-3.556v4.039h-9.095c1.198,1.895,2.391,3.798,3.635,5.664h9.016V388.101z" style="fill:#7DD7F2;"/><path d="M38.891,392.14h9.095v-4.039H36.333C37.159,389.466,38.041,390.789,38.891,392.14z" style="fill:#7DD7F2;"/><path d="M12.405,335.947c3.375,10.25,7.34,20.231,11.931,29.869v-29.869H12.405z" style="fill:#466D7E;"/><path d="M12.405,335.947c3.375,10.25,7.34,20.231,11.931,29.869v-29.869H12.405z" style="opacity:0.54;fill:#7DD7F2;"/><path d="M44.271,335.947H31.505v43.751c0.826,1.485,1.685,2.952,2.539,4.415h10.228V335.947z" style="fill:#466D7E;"/><path d="M44.271,335.947H31.505v43.751c0.826,1.485,1.685,2.952,2.539,4.415h10.228V335.947z" style="opacity:0.54;fill:#7DD7F2;"/><path d="M444.109,271.04h8.324v4.35h58.216c0.283-3.728,0.488-7.479,0.608-11.244h-67.148V271.04z" style="fill:#F57F17;"/><path d="M511.365,251.825h-56.551v4.837v3.129h-10.705v4.354h67.148c0.079-2.497,0.182-4.977,0.19-7.483   c0-0.265,0.019-0.52,0.019-0.78C511.467,254.526,511.384,253.18,511.365,251.825z" style="fill:#FFA726;"/><path d="M452.434,289.661v0.111h-6.616v4.35v6.439h-4.21l-3.7,17.692h6.87v8.324h-7.929v109.944   c11.755-11.806,22.349-24.754,31.634-38.663h-9.012v-9.703h3.557v-56.15h-3.557v-9.708h43.245   c2.465-9.201,4.462-18.598,5.896-28.176c0.224-1.476,0.372-2.976,0.566-4.461H452.434z" style="fill:#E65100;"/><path d="M452.434,275.39v2.08v12.191h56.744c0.534-4.034,0.976-8.102,1.314-12.191   c0.061-0.691,0.106-1.384,0.157-2.08H452.434z" style="fill:#FFA726;"/><path d="M437.972,318.254l0.014-0.051h-32.051h-6.862v8.319h7.93h29.847v0.056h7.929v-8.324H437.972z    M436.928,320.339v-0.056h0.557l-0.014,0.056H436.928z" style="fill:#F57F17;"/><polygon points="446.495,247.414 446.417,247.47 441.728,247.47 441.611,247.414 75.278,247.414    258.442,159.94 441.611,247.414 446.495,247.414 453.022,240.896 258.442,147.971 63.867,240.887 70.399,247.414 62.001,247.414    62.001,251.769 62.001,256.606 62.001,259.735 72.711,259.735 444.109,259.735 444.109,259.791 454.814,259.791 454.814,256.662    454.894,256.606 454.894,251.769 454.894,247.414  " style="fill:#FFB74D;"/><polygon points="444.188,270.984 72.711,270.984 64.387,270.984 64.387,275.334 64.387,277.414    64.387,289.61 71.003,289.61 71.003,289.066 118.867,289.066 118.867,289.61 180.013,289.61 180.013,289.066 227.876,289.066    227.876,289.61 289.019,289.61 289.019,289.066 336.887,289.066 336.887,289.61 398.028,289.61 398.028,289.066 445.896,289.066    445.896,289.122 445.817,289.122 445.817,289.749 452.434,289.749 452.434,289.61 452.512,289.61 452.512,277.414 452.512,275.334    452.512,270.984  " style="fill:#FFB74D;"/><path d="M476.974,384.164h-10.241v-48.171h12.775v43.761c2.521-4.55,4.921-9.174,7.168-13.891v-29.87h11.932   c0.44-1.337,0.933-2.646,1.351-3.987h-36.931v56.15h11.652C475.469,386.838,476.203,385.492,476.974,384.164z" style="fill:#466D7E;"/><path d="M459.471,332.006h3.557v-0.646h37.112c0.924-2.995,1.764-6.026,2.576-9.063h-43.245V332.006z" style="fill:#7DD7F2;"/><path d="M500.14,331.36h-37.112v0.646h36.931C500.028,331.797,500.074,331.573,500.14,331.36z" style="fill:#7DD7F2;"/><path d="M463.027,392.195v-4.039h-3.557v9.703h9.012c1.249-1.866,2.438-3.77,3.635-5.664H463.027z" style="fill:#7DD7F2;"/><path d="M472.117,392.195c0.854-1.355,1.736-2.679,2.563-4.039h-11.652v4.039H472.117z" style="fill:#7DD7F2;"/><path d="M466.732,335.993v48.171h10.241c0.85-1.467,1.713-2.925,2.534-4.41v-43.761H466.732z" style="fill:#466D7E;"/><path d="M466.732,335.993v48.171h10.241c0.85-1.467,1.713-2.925,2.534-4.41v-43.761H466.732z" style="opacity:0.54;fill:#7DD7F2;"/><path d="M486.676,365.863c4.592-9.633,8.557-19.619,11.932-29.87h-11.932V365.863z" style="fill:#466D7E;"/><path d="M486.676,365.863c4.592-9.633,8.557-19.619,11.932-29.87h-11.932V365.863z" style="opacity:0.54;fill:#7DD7F2;"/><g><path d="M254.144,209.42l0.919-0.915c0-0.005,0.005-0.014,0.005-0.019    C254.487,208.993,254.144,209.327,254.144,209.42z" style="fill:#FFFFFF;"/><path d="M349.217,31.128l-14.67,2.851l-44.698-0.794l21.922,36.425l3.273,11.458l-13.682,4.852    l-71.694,12.279l63.927,26.518l11.838,10.813c0.242,1.593,0.386,3.199,0.376,4.239c-4.818,2.874-18.625,7.015-34.271,15.181    l-34.791,5.952l28.904,5.794c1.871,3.979,3.677,8.44,3.955,9.74c0.015,1.365,0.131,4.596,0.307,9.257    c0.116,3.003-14.688,21.927-14.846,22.795c4.591-4.016,25.013-19.522,24.875-23.176c-0.135-3.575-0.307-8.022-0.307-9.118    c0-0.692,0-2.586-2.925-9.383c34.832-18.227,76.643-7.163,77.223-7.744c0.976-0.97-36.745-16.128-38.932-27.075l-0.325-1.611    l-13.598-12.414l-29.776-15.241l41.179-4.977l55.282,8.408l-41.128-36.114l-6.281-18.24l17.345-8.213l52.395,10.655l-4.405-18.891    c-13.481-7.976-27.753-14.758-42.679-20.186L349.217,31.128z" style="fill:#FFFFFF;"/></g></g></svg>
