<?xml version="1.0" ?><!DOCTYPE svg  PUBLIC '-//W3C//DTD SVG 1.1//EN'  'http://www.w3.org/Graphics/SVG/1.1/DTD/svg11.dtd'><svg height="512px" id="Layer_1" style="enable-background:new 0 0 512 512;" version="1.1" viewBox="0 0 512 512" width="512px" xml:space="preserve" xmlns="http://www.w3.org/2000/svg" xmlns:xlink="http://www.w3.org/1999/xlink"><g><path d="M511.976,256.389c0,141.388-114.622,256.002-256.006,256.002   c-141.381,0-255.995-114.614-255.995-256.002c0-141.383,114.613-255.998,255.995-255.998   C397.354,0.391,511.976,115.005,511.976,256.389z" style="fill:#4A148C;"/><g><g><path d="M178.106,31.593v82.558v210.687v100.121h0.139c1.476,31.229,35.654,56.229,77.715,56.229     c42.072,0,76.268-25,77.745-56.229h0.148V324.838V112.434v-80.84H178.106z" style="fill:#FF6EC9;"/><path d="M178.106,353.575v11.978l152.934,72.414c1.244-3.491,2.052-7.112,2.414-10.826L178.106,353.575z" style="fill:#FAF3D7;"/><path d="M178.106,353.575l155.348,73.565c0.074-0.733,0.214-1.448,0.251-2.182h0.148v-17.178     L178.106,334.03V353.575z" style="fill:#F42458;"/><polygon points="300.326,196.138 288.887,189.137 178.106,234.773 178.106,246.472    " style="fill:#FAF3D7;"/><polygon points="333.854,234.086 188.923,293.779 178.106,298.231 178.106,300.623 188.635,305.608      333.854,374.374 333.854,362.396 202.154,300.042 333.854,245.794    " style="fill:#FAF3D7;"/><polygon points="188.635,305.608 178.106,300.623 178.106,309.949 178.106,320.177 333.854,393.914      333.854,374.374    " style="fill:#F42458;"/><polygon points="332.229,215.646 178.106,279.128 178.106,288.649 188.923,293.779 333.854,234.086      333.854,216.63    " style="fill:#FFF559;"/><polygon points="178.106,298.231 188.923,293.779 178.106,288.649    " style="fill:#DFD653;"/><polygon points="333.854,147.856 333.854,135.173 178.106,39.955 178.106,52.619    " style="fill:#FAF3D7;"/><polygon points="301.282,184.03 178.106,108.72 178.106,114.151 178.106,121.412 288.887,189.137    " style="fill:#FAF3D7;"/><polygon points="178.106,88.019 178.106,108.72 301.282,184.03 321.514,175.707    " style="fill:#E9D9A8;"/><polygon points="333.854,168.562 333.854,147.856 178.106,52.619 178.106,73.344    " style="fill:#E9D9A8;"/><polygon points="332.953,182.693 312.721,191.031 300.326,196.138 178.106,246.472 178.106,265.586      318.988,207.549 331.394,202.443 333.854,201.431 333.854,183.241    " style="fill:#FFF559;"/><polygon points="321.514,175.707 301.282,184.03 288.887,189.137 300.326,196.138 312.721,191.031      332.953,182.693 333.854,182.332 333.854,170.623    " style="fill:#FAF3D7;"/><path d="M292.712,310.901L191.495,175.953l-9.452,11.058l96.296,128.407l-60.02,158.445     c4.28,1.782,8.802,3.268,13.528,4.415l59.779-157.809C294.411,318.051,294.969,313.9,292.712,310.901z" style="fill:#ABE83B;"/><polygon points="296.194,31.593 182.758,164.309 178.106,169.759 178.106,181.765 182.043,187.011      191.495,175.953 314.875,31.593    " style="fill:#ABE83B;"/><circle cx="256.639" cy="128.868" r="50.418" style="fill:none;"/><polygon points="275.962,163.204 223.379,110.623 238.041,95.953 290.623,148.543    " style="fill:none;"/><g><path d="M309.435,128.71c0,29.54-23.965,53.481-53.493,53.481c-29.535,0-53.49-23.941-53.49-53.481      c0-29.541,23.955-53.491,53.49-53.491C285.47,75.219,309.435,99.17,309.435,128.71z" style="fill:#00FE1B;"/><g><path d="M258.291,75.34c-0.789-0.033-1.551-0.121-2.35-0.121c-29.535,0-53.49,23.951-53.49,53.491       c0,6.889,1.337,13.449,3.723,19.499L258.291,75.34z" style="fill:#00AD0C;"/><path d="M250.64,181.923c1.746,0.172,3.519,0.269,5.301,0.269c29.528,0,53.493-23.941,53.493-53.481       c0-7.92-1.773-15.409-4.856-22.173L250.64,181.923z" style="fill:#00AD0C;"/></g><g><polygon points="282.341,164.43 214.03,114.003 229.554,92.991 297.856,143.418      " style="fill:#FF89C4;"/></g></g><path d="M255.96,481.188c30.391,0,56.603-13.078,69.407-32.098l-77.206,31.801     C250.724,481.087,253.333,481.188,255.96,481.188z" style="fill:#B76082;"/><path d="M331.904,427.299l-11.439-6.992l-110.781,45.627v3.732c2.832,1.574,5.775,3.031,8.886,4.309     L331.904,427.299z" style="fill:#FAF3D7;"/><path d="M331.904,427.299L218.57,473.975c8.941,3.686,18.932,6.118,29.591,6.917l77.206-31.801     c4.596-6.825,7.456-14.411,8.152-22.452L331.904,427.299z" style="fill:#DFD653;"/><polygon points="219.675,31.593 178.106,47.044 178.106,58.581 250.742,31.593    " style="fill:#FAF3D7;"/><polygon points="178.106,47.044 219.675,31.593 178.106,31.593    " style="fill:#DFD653;"/></g><path d="M178.106,114.151v210.687v100.121h0.139c1.476,31.229,35.654,56.229,77.715,56.229    c42.072,0,76.268-25,77.745-56.229h0.148V324.838V112.434v-80.84H178.106V114.151z M190.613,44.105h130.725v377.446l-0.13,2.813    c-1.161,24.434-30.427,44.309-65.248,44.309c-34.8,0-64.057-19.875-65.208-44.309l-0.139-2.229V44.105z" style="fill:#FF0281;"/></g></g></svg>